<svg xmlns="http://www.w3.org/2000/svg" xmlns:xlink="http://www.w3.org/1999/xlink" version="1.1" x="0px" y="0px" viewBox="0 0 16 20" style="enable-background:new 0 0 16 16;" xml:space="preserve"><path d="M15.85,7.85l-3,3c-0.19,0.2-0.51,0.2-0.7,0l-3-3C9,7.71,8.96,7.5,9.04,7.31C9.12,7.12,9.3,7,9.5,7h1.36  c-0.47-1.889-2.203-3.163-4.241-2.983c-1.802,0.159-3.319,1.6-3.576,3.391C2.688,9.881,4.595,12,7,12  c0.873,0,1.696-0.28,2.371-0.786c0.207-0.155,0.489-0.154,0.672,0.029l1.423,1.423c0.203,0.203,0.202,0.545-0.018,0.73  c-1.162,0.974-2.606,1.535-4.154,1.598c-3.831,0.156-7.189-2.972-7.291-6.805C-0.102,4.243,3.077,1,7,1c3.53,0,6.44,2.55,6.93,6  h1.57c0.2,0,0.38,0.12,0.46,0.31C16.04,7.5,16,7.71,15.85,7.85z"/><text x="0" y="31" fill="#000000" font-size="5px" font-weight="bold" font-family="'Helvetica Neue', Helvetica, Arial-Unicode, Arial, Sans-serif">Created by icon 54</text><text x="0" y="36" fill="#000000" font-size="5px" font-weight="bold" font-family="'Helvetica Neue', Helvetica, Arial-Unicode, Arial, Sans-serif">from the Noun Project</text></svg>