<?xml version="1.0" encoding="UTF-8" standalone="no"?>
<svg
   xmlns:dc="http://purl.org/dc/elements/1.1/"
   xmlns:cc="http://creativecommons.org/ns#"
   xmlns:rdf="http://www.w3.org/1999/02/22-rdf-syntax-ns#"
   xmlns:svg="http://www.w3.org/2000/svg"
   xmlns="http://www.w3.org/2000/svg"
   version="1.1"
   id="svg2"
   viewBox="0 0 744.09448819 1052.3622047"
   height="297mm"
   width="210mm">
  <defs
     id="defs4" />
  <metadata
     id="metadata7">
    <rdf:RDF>
      <cc:Work
         rdf:about="">
        <dc:format>image/svg+xml</dc:format>
        <dc:type
           rdf:resource="http://purl.org/dc/dcmitype/StillImage" />
        <dc:title></dc:title>
      </cc:Work>
    </rdf:RDF>
  </metadata>
  <g
     id="layer1">
    <path
       id="path3347-8"
       d="M 690.10204,282.53079 C 690.08994,136.75949 555.74629,18.515592 389.82071,18.235218 l 0,9.220063 c 122.49725,4.132292 219.84013,111.570279 219.97204,242.784579 -0.0881,130.85299 -83.27912,238.1682 -205.42184,242.83668 l -24.83449,0.97487 C 213.61263,514.33176 90.504365,631.39061 90.489728,777.16034 90.501885,922.9316 224.84556,1041.1754 390.77108,1041.4558 l 0,-9.22 C 268.27377,1028.1035 170.93086,920.66545 170.79902,789.4511 c 0.0883,-130.85292 85.6444,-238.75931 207.78704,-243.42779 l 24.24319,-0.38378 C 569.34426,540.62879 690.08728,428.30045 690.10204,282.53079 Z m -13.14129,-1.4575 c 0,14.11411 -11.44176,25.55586 -25.55587,25.55586 -14.11409,0 -25.55584,-11.44175 -25.55584,-25.55586 0,-14.11412 11.44173,-25.55587 25.55584,-25.55587 14.11412,0 25.55587,11.44175 25.55587,25.55587 z m -18.52402,-78.85985 c -6e-5,11.78746 -9.55566,21.34309 -21.34312,21.34322 -11.78904,0.002 -21.34708,-9.5542 -21.34714,-21.34322 6e-5,-11.78905 9.55809,-21.34533 21.34714,-21.34324 11.78746,1.3e-4 21.34306,9.55576 21.34312,21.34324 z m -2.63145,158.3026 c -1.8e-4,11.78738 -9.55573,21.3429 -21.34313,21.34303 -11.78739,-1.3e-4 -21.34294,-9.55565 -21.34312,-21.34303 6e-5,-11.78747 9.55565,-21.34311 21.34312,-21.34324 11.78747,1.3e-4 21.34307,9.55577 21.34313,21.34324 z M 625.5096,142.7801 c -9.8e-4,8.68417 -7.04064,15.72381 -15.72482,15.72484 -8.68573,9.9e-4 -15.72783,-7.03911 -15.72883,-15.72484 -9.9e-4,-8.68729 7.04154,-15.73003 15.72883,-15.72883 8.68573,9.9e-4 15.72602,7.04311 15.72482,15.72883 z m -7.88637,278.33931 c -9.8e-4,8.68416 -7.04068,15.72381 -15.72484,15.72482 -8.68572,9.9e-4 -15.7278,-7.0391 -15.72884,-15.72482 -9.9e-4,-8.68732 7.04152,-15.73011 15.72884,-15.72892 8.68576,9.8e-4 15.72608,7.04316 15.72484,15.72892 z M 584.17301,99.990001 c 9.8e-4,4.810549 -3.89841,8.710669 -8.70894,8.708959 -4.809,-4.7e-4 -8.70671,-3.89996 -8.70499,-8.708959 4.9e-4,-4.807427 3.89756,-8.70449 8.70499,-8.704959 4.80897,-0.0011 8.70845,3.895996 8.70894,8.704959 z M 577.4606,460.695 c -7.5e-4,6.74734 -5.47155,12.21633 -12.21888,12.21487 -6.74578,-7.4e-4 -12.21415,-5.46909 -12.2149,-12.21487 -9.9e-4,-6.74738 5.46751,-12.21821 12.2149,-12.21896 6.74893,-9.9e-4 12.22038,5.47002 12.21888,12.21896 z m -39.28814,28.1832 c -3.9e-4,4.80903 -3.8999,8.70686 -8.70894,8.70515 -4.8075,-4.7e-4 -8.7046,-3.89767 -8.70499,-8.70515 5.1e-4,-4.80741 3.89757,-8.70448 8.70499,-8.70494 4.80895,-9.9e-4 8.70844,3.89599 8.70894,8.70494 z m -278.33925,81.93454 c -5e-4,4.8074 -3.89754,8.70445 -8.70495,8.70493 -4.80896,9.9e-4 -8.70845,-3.89596 -8.70894,-8.70493 4.9e-4,-4.80896 3.89998,-8.70666 8.70894,-8.70494 4.80741,4.9e-4 8.70445,3.89754 8.70495,8.70494 z m -32.26825,28.18341 c 9.9e-4,6.74729 -5.4676,12.21801 -12.2149,12.21877 -6.74886,9.8e-4 -12.22028,-5.46991 -12.21889,-12.21877 7.6e-4,-6.74735 5.47154,-12.21635 12.21889,-12.2149 6.74579,7.6e-4 12.21414,5.4691 12.2149,12.2149 z m -13.73228,360.705 c -5.1e-4,4.80742 -3.89755,8.70444 -8.70496,8.70494 -4.80897,9.9e-4 -8.70845,-3.89597 -8.70896,-8.70494 -0.002,-4.81056 3.8984,-8.71076 8.70896,-8.70904 4.809,5.1e-4 8.70673,3.90003 8.70496,8.70904 z M 194.4222,638.57175 c 9.8e-4,8.68732 -7.04151,15.7301 -15.72883,15.72892 -8.68576,-9.9e-4 -15.72607,-7.04317 -15.72484,-15.72892 9.9e-4,-8.68416 7.04068,-15.7238 15.72484,-15.72482 8.68572,-9.9e-4 15.72781,7.0391 15.72883,15.72482 z m -7.88637,278.33928 c 9.9e-4,8.68725 -7.0416,15.7299 -15.72883,15.72872 -8.68568,-9.9e-4 -15.72595,-7.04303 -15.72483,-15.72872 9.9e-4,-8.68415 7.04067,-15.72379 15.72483,-15.72481 8.68573,-9.9e-4 15.72779,7.03909 15.72883,15.72481 z M 167.47275,699.17512 c -1.9e-4,11.7874 -9.55574,21.3429 -21.34314,21.34302 -11.78738,-1.2e-4 -21.34293,-9.55562 -21.34312,-21.34302 6e-5,-11.78748 9.55564,-21.34311 21.34312,-21.34324 11.7875,1.3e-4 21.34308,9.55576 21.34314,21.34324 z m -2.62746,158.30258 c -1.6e-4,11.78896 -9.55816,21.34513 -21.34713,21.34303 -11.78738,-1.2e-4 -21.34294,-9.55563 -21.34312,-21.34303 8e-5,-11.78745 9.55566,-21.34308 21.34312,-21.34321 11.78903,-0.002 21.34705,9.55418 21.34713,21.34321 z m -10.10254,-78.85985 c 0,14.11412 -11.44176,25.55586 -25.55587,25.55586 -14.11412,0 -25.55586,-11.44174 -25.55586,-25.55586 0,-14.11411 11.44175,-25.55586 25.55586,-25.55586 14.11411,0 25.55587,11.44173 25.55587,25.55586 z"
       style="fill:#ff0000;fill-rule:evenodd;stroke:#000000;stroke-width:2.0520525px;stroke-linecap:butt;stroke-linejoin:miter;stroke-opacity:1" />
  </g>
</svg>
